<svg width="49" height="48" viewBox="0 0 49 48" fill="none" xmlns="http://www.w3.org/2000/svg">
<path d="M41.0016 33.2146V14.7886C42.0252 14.5263 42.9611 13.9978 43.7144 13.2568C44.4677 12.5157 45.0115 11.5886 45.2905 10.5694C45.5696 9.55028 45.574 8.47543 45.3033 7.45402C45.0326 6.43261 44.4965 5.50102 43.7493 4.75384C43.0021 4.00667 42.0705 3.47051 41.0491 3.19982C40.0277 2.92913 38.9529 2.93354 37.9337 3.2126C36.9146 3.49167 35.9874 4.03545 35.2464 4.78874C34.5054 5.54202 33.9769 6.47798 33.7146 7.50158H15.2886C15.0263 6.47798 14.4978 5.54202 13.7568 4.78874C13.0157 4.03545 12.0886 3.49167 11.0694 3.2126C10.0503 2.93354 8.97543 2.92913 7.95402 3.19982C6.93261 3.47051 6.00102 4.00667 5.25384 4.75384C4.50667 5.50102 3.97051 6.43261 3.69982 7.45402C3.42913 8.47543 3.43354 9.55028 3.7126 10.5694C3.99167 11.5886 4.53545 12.5157 5.28874 13.2568C6.04202 13.9978 6.97798 14.5263 8.00158 14.7886V33.2146C6.97798 33.4769 6.04202 34.0054 5.28874 34.7464C4.53545 35.4874 3.99167 36.4146 3.7126 37.4337C3.43354 38.4529 3.42913 39.5277 3.69982 40.5491C3.97051 41.5705 4.50667 42.5021 5.25384 43.2493C6.00102 43.9965 6.93261 44.5326 7.95402 44.8033C8.97543 45.074 10.0503 45.0696 11.0694 44.7905C12.0886 44.5115 13.0157 43.9677 13.7568 43.2144C14.4978 42.4611 15.0263 41.5252 15.2886 40.5016H33.7146C33.9769 41.5252 34.5054 42.4611 35.2464 43.2144C35.9874 43.9677 36.9146 44.5115 37.9337 44.7905C38.9529 45.0696 40.0277 45.074 41.0491 44.8033C42.0705 44.5326 43.0021 43.9965 43.7493 43.2493C44.4965 42.5021 45.0326 41.5705 45.3033 40.5491C45.574 39.5277 45.5696 38.4529 45.2905 37.4337C45.0115 36.4146 44.4677 35.4874 43.7144 34.7464C42.9611 34.0054 42.0252 33.4769 41.0016 33.2146ZM39.5016 6.00158C40.0949 6.00158 40.6749 6.17752 41.1683 6.50717C41.6616 6.83681 42.0462 7.30535 42.2732 7.85353C42.5003 8.4017 42.5597 9.0049 42.4439 9.58685C42.3282 10.1688 42.0424 10.7033 41.6229 11.1229C41.2033 11.5425 40.6688 11.8282 40.0868 11.9439C39.5049 12.0597 38.9017 12.0003 38.3535 11.7732C37.8053 11.5462 37.3368 11.1616 37.0072 10.6683C36.6775 10.1749 36.5016 9.59492 36.5016 9.00158C36.5016 8.20593 36.8176 7.44286 37.3803 6.88026C37.9429 6.31765 38.7059 6.00158 39.5016 6.00158ZM6.50158 9.00158C6.50158 8.40823 6.67752 7.82821 7.00717 7.33487C7.33681 6.84152 7.80535 6.457 8.35353 6.22994C8.9017 6.00287 9.5049 5.94346 10.0868 6.05922C10.6688 6.17498 11.2033 6.4607 11.6229 6.88026C12.0425 7.29981 12.3282 7.83436 12.4439 8.41631C12.5597 8.99825 12.5003 9.60145 12.2732 10.1496C12.0462 10.6978 11.6616 11.1663 11.1683 11.496C10.6749 11.8256 10.0949 12.0016 9.50158 12.0016C8.70593 12.0016 7.94286 11.6855 7.38026 11.1229C6.81765 10.5603 6.50158 9.79723 6.50158 9.00158ZM9.50158 42.0016C8.90823 42.0016 8.32821 41.8256 7.83487 41.496C7.34152 41.1663 6.957 40.6978 6.72994 40.1496C6.50287 39.6014 6.44346 38.9982 6.55922 38.4163C6.67498 37.8344 6.9607 37.2998 7.38026 36.8803C7.79981 36.4607 8.33436 36.175 8.91631 36.0592C9.49825 35.9435 10.1014 36.0029 10.6496 36.2299C11.1978 36.457 11.6663 36.8415 11.996 37.3349C12.3256 37.8282 12.5016 38.4082 12.5016 39.0016C12.5016 39.7972 12.1855 40.5603 11.6229 41.1229C11.0603 41.6855 10.2972 42.0016 9.50158 42.0016ZM33.7146 37.5016H15.2886C15.019 36.4707 14.4798 35.5302 13.7264 34.7768C12.9729 34.0233 12.0324 33.4841 11.0016 33.2146V14.7886C12.0324 14.519 12.9729 13.9798 13.7264 13.2264C14.4798 12.4729 15.019 11.5324 15.2886 10.5016H33.7146C33.9841 11.5324 34.5233 12.4729 35.2768 13.2264C36.0302 13.9798 36.9707 14.519 38.0016 14.7886V33.2146C36.97 33.4827 36.0288 34.0214 35.2751 34.7751C34.5214 35.5288 33.9827 36.47 33.7146 37.5016ZM39.5016 42.0016C38.9082 42.0016 38.3282 41.8256 37.8349 41.496C37.3415 41.1663 36.957 40.6978 36.7299 40.1496C36.5029 39.6014 36.4435 38.9982 36.5592 38.4163C36.675 37.8344 36.9607 37.2998 37.3803 36.8803C37.7998 36.4607 38.3344 36.175 38.9163 36.0592C39.4982 35.9435 40.1014 36.0029 40.6496 36.2299C41.1978 36.457 41.6663 36.8415 41.996 37.3349C42.3256 37.8282 42.5016 38.4082 42.5016 39.0016C42.5004 39.7969 42.1839 40.5592 41.6216 41.1216C41.0592 41.6839 40.2969 42.0004 39.5016 42.0016Z" fill="#CEA44E"/>
</svg>
